<svg height="512pt" viewBox="0 0 512 512" width="512pt" xmlns="http://www.w3.org/2000/svg"><path d="m462 40c-5.519531 0-10 4.480469-10 10s4.480469 10 10 10 10-4.480469 10-10-4.480469-10-10-10zm0 0"/><path d="m462 452c-5.519531 0-10 4.480469-10 10s4.480469 10 10 10 10-4.480469 10-10-4.480469-10-10-10zm0 0"/><path d="m50 60c5.519531 0 10-4.480469 10-10s-4.480469-10-10-10-10 4.480469-10 10 4.480469 10 10 10zm0 0"/><path d="m50 452c-5.519531 0-10 4.480469-10 10s4.480469 10 10 10 10-4.480469 10-10-4.480469-10-10-10zm0 0"/><path d="m56 266h.25c5.410156-.140625 9.75-4.558594 9.75-10s-4.339844-9.859375-9.75-10c-.078125 0-.171875 0-.25 0-5.519531 0-10 4.480469-10 10s4.480469 10 10 10zm0 0"/><path d="m462 0h-412c-27.570312 0-50 22.429688-50 50v412c0 27.570312 22.429688 50 50 50h412c27.570312 0 50-22.429688 50-50v-412c0-27.570312-22.429688-50-50-50zm30 462c0 16.542969-13.457031 30-30 30h-412c-16.542969 0-30-13.457031-30-30v-412c0-16.542969 13.457031-30 30-30h412c16.542969 0 30 13.457031 30 30zm0 0"/><path d="m256 46c-102.023438 0-186.207031 72.140625-205.839844 168.1875-1.101562 5.410156 2.386719 10.695312 7.796875 11.800781 5.410157 1.101563 10.695313-2.386719 11.800781-7.796875 18.023438-88.183594 96.347657-152.191406 186.242188-152.191406 104.765625 0 190 85.234375 190 190s-85.234375 190-190 190c-90.453125 0-167.050781-62.621094-186.261719-152.285156-1.15625-5.398438-6.476562-8.839844-11.875-7.683594-5.398437 1.15625-8.839843 6.472656-7.683593 11.875 20.566406 95.96875 102.238281 168.09375 205.820312 168.09375 116.34375 0 210-93.570312 210-210 0-115.792969-94.207031-210-210-210zm0 0"/><path d="m366 176c0-49.625-40.375-90-90-90h-20c-5.523438 0-10 4.476562-10 10v83.390625c-16.683594-20.613281-42.121094-33.390625-70-33.390625-49.625 0-90 40.375-90 90v20c0 5.523438 4.476562 9.988281 10 9.988281h83.390625c-20.613281 16.6875-33.390625 42.132813-33.390625 70.011719 0 49.625 40.375 90 90 90h20c5.523438 0 10-4.476562 10-10v-83.390625c16.683594 20.613281 42.121094 33.390625 70 33.390625 49.625 0 90-40.375 90-90v-20c0-5.523438-4.476562-10-10-10h-83.390625c20.613281-16.683594 33.390625-42.121094 33.390625-70zm-90-70c38.597656 0 70 31.402344 70 70 0 28.402344-17.035156 53.550781-42.503906 64.390625-5.566406-16.921875-19.910156-29.785156-37.496094-33.375v-101.015625zm-18.097656 179.9375c-16.96875 1.023438-30.847656-11.925781-31.839844-28.035156-1.054688-17.496094 12.804688-31.902344 29.9375-31.902344 16.417969 0 30 13.316406 30 30 0 15.816406-12.351562 28.96875-28.097656 29.9375zm-151.902344-49.9375c0-38.597656 31.402344-70 70-70 28.402344 0 53.550781 17.035156 64.390625 42.503906-16.921875 5.566406-29.785156 19.910156-33.375 37.496094h-101.015625zm130 170c-38.597656 0-70-31.402344-70-70 0-28.402344 17.035156-53.550781 42.503906-64.390625 5.566406 16.921875 19.910156 29.785156 37.496094 33.375v101.015625zm170-130c0 38.597656-31.402344 70-70 70-28.402344 0-53.550781-17.035156-64.390625-42.503906 16.921875-5.566406 29.785156-19.910156 33.375-37.496094h101.015625zm0 0"/></svg>