<svg id="Capa_1" enable-background="new 0 0 64 64" height="512" viewBox="0 0 64 64" width="512" xmlns="http://www.w3.org/2000/svg"><path d="m7.467 11.733h-6.4c-.589 0-1.067-.478-1.067-1.066 0-.589.478-1.067 1.067-1.067h6.4c.589 0 1.067.478 1.067 1.067-.001.588-.479 1.066-1.067 1.066z"/><path d="m7.467 54.4c-.589 0-1.067-.478-1.067-1.067v-42.666c0-.589.478-1.067 1.067-1.067s1.067.478 1.067 1.067v42.667c-.001.588-.479 1.066-1.067 1.066z"/><path d="m7.467 32h-4.267c-.589 0-1.067-.478-1.067-1.067v-8.533c0-.589.478-1.067 1.067-1.067h4.267c.589 0 1.067.478 1.067 1.067v8.533c-.001.589-.479 1.067-1.067 1.067zm-3.2-2.133h2.133v-6.4h-2.133z"/><path d="m7.467 49.067h-4.267c-.589 0-1.067-.478-1.067-1.067v-8.533c0-.589.478-1.067 1.067-1.067h4.267c.589 0 1.067.478 1.067 1.067v8.533c-.001.589-.479 1.067-1.067 1.067zm-3.2-2.134h2.133v-6.4h-2.133z"/><path d="m38.4 54.4h-23.467c-.589 0-1.067-.478-1.067-1.067v-7.467c0-.589.478-1.067 1.067-1.067h23.467c.589 0 1.067.478 1.067 1.067v7.467c0 .589-.478 1.067-1.067 1.067zm-22.4-2.133h21.333v-5.333h-21.333z"/><path d="m20.267 54.4c-.589 0-1.067-.478-1.067-1.067v-3.2c0-.589.478-1.067 1.067-1.067s1.067.478 1.067 1.067v3.2c-.001.589-.479 1.067-1.067 1.067z"/><path d="m33.067 54.4c-.589 0-1.067-.478-1.067-1.067v-3.2c0-.589.478-1.067 1.067-1.067s1.067.478 1.067 1.067v3.2c-.001.589-.479 1.067-1.067 1.067z"/><path d="m49.067 54.4c-.589 0-1.067-.478-1.067-1.067v-3.2c0-.589.478-1.067 1.067-1.067s1.067.478 1.067 1.067v3.2c-.001.589-.479 1.067-1.067 1.067z"/><path d="m28.8 54.4c-.589 0-1.067-.478-1.067-1.067v-3.2c0-.589.478-1.067 1.067-1.067s1.067.478 1.067 1.067v3.2c0 .589-.478 1.067-1.067 1.067z"/><path d="m24.533 54.4c-.589 0-1.067-.478-1.067-1.067v-3.2c0-.589.478-1.067 1.067-1.067s1.067.478 1.067 1.067v3.2c0 .589-.478 1.067-1.067 1.067z"/><path d="m53.333 54.4h-8.533c-.589 0-1.067-.478-1.067-1.067v-7.467c0-.589.478-1.067 1.067-1.067h8.533c.589 0 1.067.478 1.067 1.067v7.467c0 .589-.478 1.067-1.067 1.067zm-7.466-2.133h6.4v-5.333h-6.4z"/><path d="m7.467 19.2h-4.267c-.589 0-1.067-.478-1.067-1.067s.478-1.067 1.067-1.067h4.267c.589 0 1.067.478 1.067 1.067s-.479 1.067-1.067 1.067z"/><path d="m7.467 36.267h-4.267c-.589 0-1.067-.478-1.067-1.067s.478-1.067 1.067-1.067h4.267c.589 0 1.067.478 1.067 1.067-.001.589-.479 1.067-1.067 1.067z"/><path d="m22.4 42.667c-6.469 0-11.733-5.264-11.733-11.733s5.264-11.734 11.733-11.734 11.733 5.264 11.733 11.733-5.264 11.734-11.733 11.734zm0-21.334c-5.294 0-9.6 4.307-9.6 9.6s4.306 9.6 9.6 9.6 9.6-4.307 9.6-9.6-4.306-9.6-9.6-9.6z"/><path d="m22.4 35.2c-2.353 0-4.267-1.914-4.267-4.267s1.914-4.267 4.267-4.267 4.267 1.914 4.267 4.267-1.914 4.267-4.267 4.267zm0-6.4c-1.177 0-2.133.957-2.133 2.133 0 1.177.957 2.133 2.133 2.133 1.177 0 2.133-.957 2.133-2.133s-.956-2.133-2.133-2.133z"/><path d="m57.601 46.933h-50.134c-.589 0-1.067-.478-1.067-1.067v-29.866c0-.589.478-1.067 1.067-1.067h50.134c3.529 0 6.399 2.87 6.399 6.399v19.203c0 3.528-2.87 6.398-6.399 6.398zm-49.068-2.133h49.068c2.352 0 4.266-1.914 4.266-4.266v-19.202c0-2.352-1.914-4.266-4.266-4.266h-49.068z"/><path d="m22.4 28.8c-.589 0-1.067-.478-1.067-1.067 0-2.298-2.932-4.267-5.333-4.267-.589 0-1.067-.478-1.067-1.067s.478-1.067 1.067-1.067c3.453 0 7.467 2.796 7.467 6.4 0 .59-.478 1.068-1.067 1.068z"/><path d="m28.8 40.533c-3.453 0-7.467-2.796-7.467-6.4 0-.589.478-1.067 1.067-1.067s1.067.478 1.067 1.067c0 2.298 2.932 4.267 5.333 4.267.589 0 1.067.478 1.067 1.067 0 .588-.478 1.066-1.067 1.066z"/><path d="m13.867 38.4c-.589 0-1.067-.478-1.067-1.067 0-3.453 2.796-7.467 6.4-7.467.589 0 1.067.478 1.067 1.067s-.478 1.067-1.067 1.067c-2.298 0-4.267 2.933-4.267 5.333 0 .589-.478 1.067-1.066 1.067z"/><path d="m25.6 32c-.589 0-1.067-.478-1.067-1.067s.478-1.067 1.067-1.067c2.298 0 4.267-2.933 4.267-5.333 0-.589.478-1.067 1.067-1.067s1.067.478 1.067 1.067c-.001 3.453-2.797 7.467-6.401 7.467z"/><path d="m11.841 30.492c-.273 0-.546-.105-.754-.313-.417-.416-.417-1.091 0-1.508 1.187-1.187 2.972-2.027 4.774-2.245 2.035-.251 3.823.282 5.031 1.491.416.417.416 1.092 0 1.508-.417.417-1.092.417-1.508 0-.724-.724-1.913-1.045-3.265-.882-1.345.163-2.661.775-3.522 1.636-.21.208-.484.313-.756.313z"/><path d="m27.979 35.501c-1.634 0-3.056-.535-4.07-1.551-.416-.417-.416-1.092 0-1.508.417-.417 1.092-.417 1.508 0 .724.724 1.914 1.047 3.265.882 1.345-.163 2.661-.775 3.522-1.636.417-.417 1.092-.417 1.508 0 .417.416.417 1.091 0 1.508-1.187 1.187-2.972 2.027-4.774 2.245-.326.041-.647.06-.959.06z"/><path d="m20.892 42.559c-.273 0-.546-.105-.754-.313-2.442-2.442-3.302-7.257-.754-9.805.417-.417 1.092-.417 1.508 0 .417.416.417 1.091 0 1.508-1.625 1.625-.944 5.091.754 6.788.417.417.417 1.091 0 1.508-.208.21-.481.314-.754.314z"/><path d="m24.662 29.738c-.273 0-.546-.105-.754-.313-.417-.416-.417-1.091 0-1.508 1.625-1.625.944-5.091-.754-6.788-.417-.417-.417-1.091 0-1.508.416-.417 1.092-.417 1.508 0 2.442 2.442 3.302 7.257.754 9.805-.207.207-.481.312-.754.312z"/><path d="m48 42.667c-6.469 0-11.733-5.264-11.733-11.733s5.264-11.734 11.733-11.734 11.733 5.264 11.733 11.733-5.264 11.734-11.733 11.734zm0-21.334c-5.294 0-9.6 4.307-9.6 9.6s4.306 9.6 9.6 9.6 9.6-4.307 9.6-9.6-4.306-9.6-9.6-9.6z"/><path d="m48 35.2c-2.353 0-4.267-1.914-4.267-4.267s1.914-4.267 4.267-4.267 4.267 1.914 4.267 4.267-1.914 4.267-4.267 4.267zm0-6.4c-1.177 0-2.133.957-2.133 2.133 0 1.177.957 2.133 2.133 2.133s2.133-.957 2.133-2.133-.956-2.133-2.133-2.133z"/><path d="m48 28.8c-.589 0-1.067-.478-1.067-1.067 0-2.298-2.932-4.267-5.333-4.267-.589 0-1.067-.478-1.067-1.067s.478-1.067 1.067-1.067c3.453 0 7.467 2.796 7.467 6.4 0 .59-.478 1.068-1.067 1.068z"/><path d="m54.4 40.533c-3.453 0-7.467-2.796-7.467-6.4 0-.589.478-1.067 1.067-1.067s1.067.478 1.067 1.067c0 2.298 2.932 4.267 5.333 4.267.589 0 1.067.478 1.067 1.067 0 .588-.478 1.066-1.067 1.066z"/><path d="m39.467 38.4c-.589 0-1.067-.478-1.067-1.067 0-3.453 2.796-7.467 6.4-7.467.589 0 1.067.478 1.067 1.067s-.478 1.067-1.067 1.067c-2.298 0-4.267 2.933-4.267 5.333 0 .589-.478 1.067-1.066 1.067z"/><path d="m51.2 32c-.589 0-1.067-.478-1.067-1.067s.478-1.067 1.067-1.067c2.298 0 4.267-2.933 4.267-5.333 0-.589.478-1.067 1.067-1.067s1.067.478 1.067 1.067c-.001 3.453-2.797 7.467-6.401 7.467z"/><path d="m37.441 30.492c-.273 0-.546-.105-.754-.313-.417-.416-.417-1.091 0-1.508 1.187-1.187 2.972-2.027 4.774-2.245 2.035-.251 3.823.282 5.031 1.491.416.417.416 1.092 0 1.508-.417.417-1.092.417-1.508 0-.724-.724-1.914-1.045-3.265-.882-1.345.163-2.661.775-3.522 1.636-.21.208-.484.313-.756.313z"/><path d="m53.579 35.501c-1.634 0-3.056-.535-4.07-1.551-.416-.417-.416-1.092 0-1.508.417-.417 1.092-.417 1.508 0 .724.724 1.913 1.047 3.265.882 1.345-.163 2.661-.775 3.522-1.636.417-.417 1.092-.417 1.508 0 .417.416.417 1.091 0 1.508-1.187 1.187-2.972 2.027-4.774 2.245-.326.041-.647.06-.959.06z"/><path d="m46.492 42.559c-.273 0-.546-.105-.754-.313-2.442-2.442-3.302-7.257-.754-9.805.417-.417 1.092-.417 1.508 0 .417.416.417 1.091 0 1.508-1.625 1.625-.944 5.091.754 6.788.417.417.417 1.091 0 1.508-.208.21-.481.314-.754.314z"/><path d="m50.262 29.738c-.273 0-.546-.105-.754-.313-.417-.416-.417-1.091 0-1.508 1.625-1.625.944-5.091-.754-6.788-.417-.417-.417-1.091 0-1.508.416-.417 1.092-.417 1.508 0 2.442 2.442 3.302 7.257.754 9.805-.207.207-.481.312-.754.312z"/></svg>