<?xml version="1.0" encoding="iso-8859-1"?>
<!-- Generator: Adobe Illustrator 19.0.0, SVG Export Plug-In . SVG Version: 6.00 Build 0)  -->
<svg version="1.1" id="Layer_1" xmlns="http://www.w3.org/2000/svg" xmlns:xlink="http://www.w3.org/1999/xlink" x="0px" y="0px"
	 viewBox="0 0 463 463" style="enable-background:new 0 0 463 463;" xml:space="preserve">
<g>
	<g>
		<g>
			<path d="M431.5,120h-400C14.131,120,0,134.131,0,151.5v160C0,328.869,14.131,343,31.5,343h400c17.369,0,31.5-14.131,31.5-31.5
				v-160C463,134.131,448.869,120,431.5,120z M448,311.5c0,9.099-7.402,16.5-16.5,16.5h-400c-9.098,0-16.5-7.401-16.5-16.5v-160
				c0-9.099,7.402-16.5,16.5-16.5h400c9.098,0,16.5,7.401,16.5,16.5V311.5z"/>
			<path d="M327.5,280h-192c-4.142,0-7.5,3.357-7.5,7.5s3.358,7.5,7.5,7.5h192c4.142,0,7.5-3.357,7.5-7.5S331.642,280,327.5,280z"/>
			<path d="M103.5,280h-16c-4.142,0-7.5,3.357-7.5,7.5s3.358,7.5,7.5,7.5h16c4.142,0,7.5-3.357,7.5-7.5S107.642,280,103.5,280z"/>
			<path d="M55.5,280h-16c-4.142,0-7.5,3.357-7.5,7.5s3.358,7.5,7.5,7.5h16c4.142,0,7.5-3.357,7.5-7.5S59.642,280,55.5,280z"/>
			<path d="M423.5,280h-16c-4.142,0-7.5,3.357-7.5,7.5s3.358,7.5,7.5,7.5h16c4.142,0,7.5-3.357,7.5-7.5S427.642,280,423.5,280z"/>
			<path d="M375.5,280h-16c-4.142,0-7.5,3.357-7.5,7.5s3.358,7.5,7.5,7.5h16c4.142,0,7.5-3.357,7.5-7.5S379.642,280,375.5,280z"/>
			<path d="M423.5,248h-32c-4.142,0-7.5,3.357-7.5,7.5s3.358,7.5,7.5,7.5h32c4.142,0,7.5-3.357,7.5-7.5S427.642,248,423.5,248z"/>
			<path d="M367,255.5c0-4.143-3.358-7.5-7.5-7.5h-16c-4.142,0-7.5,3.357-7.5,7.5s3.358,7.5,7.5,7.5h16
				C363.642,263,367,259.643,367,255.5z"/>
			<path d="M295.5,263h16c4.142,0,7.5-3.357,7.5-7.5s-3.358-7.5-7.5-7.5h-16c-4.142,0-7.5,3.357-7.5,7.5S291.358,263,295.5,263z"/>
			<path d="M247.5,263h16c4.142,0,7.5-3.357,7.5-7.5s-3.358-7.5-7.5-7.5h-16c-4.142,0-7.5,3.357-7.5,7.5S243.358,263,247.5,263z"/>
			<path d="M199.5,263h16c4.142,0,7.5-3.357,7.5-7.5s-3.358-7.5-7.5-7.5h-16c-4.142,0-7.5,3.357-7.5,7.5S195.358,263,199.5,263z"/>
			<path d="M151.5,263h16c4.142,0,7.5-3.357,7.5-7.5s-3.358-7.5-7.5-7.5h-16c-4.142,0-7.5,3.357-7.5,7.5S147.358,263,151.5,263z"/>
			<path d="M119.5,248h-16c-4.142,0-7.5,3.357-7.5,7.5s3.358,7.5,7.5,7.5h16c4.142,0,7.5-3.357,7.5-7.5S123.642,248,119.5,248z"/>
			<path d="M71.5,248h-32c-4.142,0-7.5,3.357-7.5,7.5s3.358,7.5,7.5,7.5h32c4.142,0,7.5-3.357,7.5-7.5S75.642,248,71.5,248z"/>
			<path d="M423.5,184h-32c-4.142,0-7.5,3.357-7.5,7.5s3.358,7.5,7.5,7.5h32c4.142,0,7.5-3.357,7.5-7.5S427.642,184,423.5,184z"/>
			<path d="M343.5,199h16c4.142,0,7.5-3.357,7.5-7.5s-3.358-7.5-7.5-7.5h-16c-4.142,0-7.5,3.357-7.5,7.5S339.358,199,343.5,199z"/>
			<path d="M295.5,199h16c4.142,0,7.5-3.357,7.5-7.5s-3.358-7.5-7.5-7.5h-16c-4.142,0-7.5,3.357-7.5,7.5S291.358,199,295.5,199z"/>
			<path d="M247.5,199h16c4.142,0,7.5-3.357,7.5-7.5s-3.358-7.5-7.5-7.5h-16c-4.142,0-7.5,3.357-7.5,7.5S243.358,199,247.5,199z"/>
			<path d="M199.5,199h16c4.142,0,7.5-3.357,7.5-7.5s-3.358-7.5-7.5-7.5h-16c-4.142,0-7.5,3.357-7.5,7.5S195.358,199,199.5,199z"/>
			<path d="M151.5,199h16c4.142,0,7.5-3.357,7.5-7.5s-3.358-7.5-7.5-7.5h-16c-4.142,0-7.5,3.357-7.5,7.5S147.358,199,151.5,199z"/>
			<path d="M103.5,199h16c4.142,0,7.5-3.357,7.5-7.5s-3.358-7.5-7.5-7.5h-16c-4.142,0-7.5,3.357-7.5,7.5S99.358,199,103.5,199z"/>
			<path d="M39.5,199h32c4.142,0,7.5-3.357,7.5-7.5s-3.358-7.5-7.5-7.5h-32c-4.142,0-7.5,3.357-7.5,7.5S35.358,199,39.5,199z"/>
			<path d="M423.5,216h-16c-4.142,0-7.5,3.357-7.5,7.5s3.358,7.5,7.5,7.5h16c4.142,0,7.5-3.357,7.5-7.5S427.642,216,423.5,216z"/>
			<path d="M375.5,216h-16c-4.142,0-7.5,3.357-7.5,7.5s3.358,7.5,7.5,7.5h16c4.142,0,7.5-3.357,7.5-7.5S379.642,216,375.5,216z"/>
			<path d="M327.5,216h-16c-4.142,0-7.5,3.357-7.5,7.5s3.358,7.5,7.5,7.5h16c4.142,0,7.5-3.357,7.5-7.5S331.642,216,327.5,216z"/>
			<path d="M279.5,216h-16c-4.142,0-7.5,3.357-7.5,7.5s3.358,7.5,7.5,7.5h16c4.142,0,7.5-3.357,7.5-7.5S283.642,216,279.5,216z"/>
			<path d="M231.5,216h-16c-4.142,0-7.5,3.357-7.5,7.5s3.358,7.5,7.5,7.5h16c4.142,0,7.5-3.357,7.5-7.5S235.642,216,231.5,216z"/>
			<path d="M183.5,216h-16c-4.142,0-7.5,3.357-7.5,7.5s3.358,7.5,7.5,7.5h16c4.142,0,7.5-3.357,7.5-7.5S187.642,216,183.5,216z"/>
			<path d="M135.5,216h-16c-4.142,0-7.5,3.357-7.5,7.5s3.358,7.5,7.5,7.5h16c4.142,0,7.5-3.357,7.5-7.5S139.642,216,135.5,216z"/>
			<path d="M39.5,231h48c4.142,0,7.5-3.357,7.5-7.5s-3.358-7.5-7.5-7.5h-48c-4.142,0-7.5,3.357-7.5,7.5S35.358,231,39.5,231z"/>
			<path d="M423.5,152h-16c-4.142,0-7.5,3.357-7.5,7.5s3.358,7.5,7.5,7.5h16c4.142,0,7.5-3.357,7.5-7.5S427.642,152,423.5,152z"/>
			<path d="M375.5,152h-16c-4.142,0-7.5,3.357-7.5,7.5s3.358,7.5,7.5,7.5h16c4.142,0,7.5-3.357,7.5-7.5S379.642,152,375.5,152z"/>
			<path d="M327.5,152h-16c-4.142,0-7.5,3.357-7.5,7.5s3.358,7.5,7.5,7.5h16c4.142,0,7.5-3.357,7.5-7.5S331.642,152,327.5,152z"/>
			<path d="M263.5,167h16c4.142,0,7.5-3.357,7.5-7.5s-3.358-7.5-7.5-7.5h-16c-4.142,0-7.5,3.357-7.5,7.5S259.358,167,263.5,167z"/>
			<path d="M215.5,167h16c4.142,0,7.5-3.357,7.5-7.5s-3.358-7.5-7.5-7.5h-16c-4.142,0-7.5,3.357-7.5,7.5S211.358,167,215.5,167z"/>
			<path d="M167.5,167h16c4.142,0,7.5-3.357,7.5-7.5s-3.358-7.5-7.5-7.5h-16c-4.142,0-7.5,3.357-7.5,7.5S163.358,167,167.5,167z"/>
			<path d="M119.5,167h16c4.142,0,7.5-3.357,7.5-7.5s-3.358-7.5-7.5-7.5h-16c-4.142,0-7.5,3.357-7.5,7.5S115.358,167,119.5,167z"/>
			<path d="M39.5,167h48c4.142,0,7.5-3.357,7.5-7.5s-3.358-7.5-7.5-7.5h-48c-4.142,0-7.5,3.357-7.5,7.5S35.358,167,39.5,167z"/>
		</g>
	</g>
</g>
<g>
</g>
<g>
</g>
<g>
</g>
<g>
</g>
<g>
</g>
<g>
</g>
<g>
</g>
<g>
</g>
<g>
</g>
<g>
</g>
<g>
</g>
<g>
</g>
<g>
</g>
<g>
</g>
<g>
</g>
</svg>
