<?xml version="1.0" encoding="iso-8859-1"?>
<!-- Generator: Adobe Illustrator 19.0.0, SVG Export Plug-In . SVG Version: 6.00 Build 0)  -->
<svg version="1.1" id="Capa_1" xmlns="http://www.w3.org/2000/svg" xmlns:xlink="http://www.w3.org/1999/xlink" x="0px" y="0px"
	 viewBox="0 0 512 512" style="enable-background:new 0 0 512 512;" xml:space="preserve">
<g>
	<g>
		<path d="M497,0H15C6.716,0,0,6.716,0,15v482c0,8.284,6.716,15,15,15h482c8.284,0,15-6.716,15-15V15C512,6.716,505.284,0,497,0z
			 M482,482H30V30h452V482z"/>
	</g>
</g>
<g>
	<g>
		<path d="M216.974,330.026H90c-8.284,0-15,6.716-15,15V432c0,8.284,6.716,15,15,15h126.974c8.284,0,15-6.716,15-15v-86.974
			C231.974,336.742,225.258,330.026,216.974,330.026z M138.487,417H105v-56.974h33.487V417z M201.974,417h-33.487v-56.974h33.487
			V417z"/>
	</g>
</g>
<g>
	<g>
		<path d="M90,65c-8.284,0-15,6.716-15,15v191c0,8.284,6.716,15,15,15s15-6.716,15-15V80C105,71.716,98.284,65,90,65z"/>
	</g>
</g>
<g>
	<g>
		<path d="M153.487,65c-8.284,0-15,6.716-15,15v191c0,8.284,6.716,15,15,15s15-6.716,15-15V80C168.487,71.716,161.771,65,153.487,65
			z"/>
	</g>
</g>
<g>
	<g>
		<path d="M442,181.974h-35V165h35c8.284,0,15-6.716,15-15s-6.716-15-15-15h-35v-5c0-8.284-6.716-15-15-15h-5V80
			c0-8.284-6.716-15-15-15s-15,6.716-15,15v35h-16.974V80c0-8.284-6.716-15-15-15s-15,6.716-15,15v35h-5c-8.284,0-15,6.716-15,15v5
			h-35c-8.284,0-15,6.716-15,15s6.716,15,15,15h35v16.974h-35c-8.284,0-15,6.716-15,15s6.716,15,15,15h35v5c0,8.284,6.716,15,15,15
			h5v35c0,8.284,6.716,15,15,15s15-6.716,15-15v-35H357v35c0,8.284,6.716,15,15,15s15-6.716,15-15v-35h5c8.284,0,15-6.716,15-15v-5
			h35c8.284,0,15-6.716,15-15S450.284,181.974,442,181.974z M377,201.974h-56.974V145H377V201.974z"/>
	</g>
</g>
<g>
	<g>
		<path d="M392,330.026h-86.974c-8.284,0-15,6.716-15,15s6.716,15,15,15H392c8.284,0,15-6.716,15-15S400.284,330.026,392,330.026z"
			/>
	</g>
</g>
<g>
	<g>
		<path d="M392,393.513h-86.974c-8.284,0-15,6.716-15,15s6.716,15,15,15H392c8.284,0,15-6.716,15-15S400.284,393.513,392,393.513z"
			/>
	</g>
</g>
<g>
</g>
<g>
</g>
<g>
</g>
<g>
</g>
<g>
</g>
<g>
</g>
<g>
</g>
<g>
</g>
<g>
</g>
<g>
</g>
<g>
</g>
<g>
</g>
<g>
</g>
<g>
</g>
<g>
</g>
</svg>
