<?xml version='1.0' encoding='iso-8859-1'?>
<!DOCTYPE svg PUBLIC '-//W3C//DTD SVG 1.1//EN' 'http://www.w3.org/Graphics/SVG/1.1/DTD/svg11.dtd'>
<svg version="1.1" xmlns="http://www.w3.org/2000/svg" viewBox="0 0 401.396 401.396" xmlns:xlink="http://www.w3.org/1999/xlink" enable-background="new 0 0 401.396 401.396">
  <path d="m200.698,0c-68.997,0-125.13,56.133-125.13,125.129v151.137c0,68.997 56.133,125.129 125.13,125.129s125.129-56.133 125.129-125.129v-151.137c0-68.996-56.132-125.129-125.129-125.129zm110.129,125.129v1.973c-32.303,16.982-68.429,26.282-105.133,27.057v-41.835c10.585-2.298 18.539-11.734 18.539-22.997v-31.367c0-11.263-7.954-20.699-18.539-22.997v-19.845c58.416,2.622 105.133,50.961 105.133,110.011zm-110.129-80.705c7.463-7.10543e-15 13.536,6.072 13.536,13.536v31.368c0,7.463-6.072,13.536-13.536,13.536s-13.536-6.072-13.536-13.536v-31.368c0-7.463 6.073-13.536 13.536-13.536zm-5.003-29.305v19.846c-10.581,2.301-18.532,11.735-18.532,22.995v31.368c0,11.26 7.951,20.694 18.532,22.995v41.837c-36.699-0.775-72.823-10.076-105.126-27.059v-1.971c-0.001-59.049 46.714-107.386 105.126-110.011zm5.003,371.277c-60.726-5.68434e-14-110.13-49.404-110.13-110.129v-137.928c34.015,16.958 71.851,25.88 110.126,25.88 38.28,0 76.118-8.921 110.133-25.878v137.925c0,60.726-49.403,110.13-110.129,110.13z"/>
</svg>
